<?xml version="1.0" standalone="no"?>
<svg xmlns:xlink="http://www.w3.org/1999/xlink" id="wave" style="transform:rotate(0deg); transition: 0.3s" viewBox="0 0 1440 290" version="1.1" xmlns="http://www.w3.org/2000/svg"><defs><linearGradient id="sw-gradient-0" x1="0" x2="0" y1="1" y2="0"><stop stop-color="rgba(255, 0, 200, 1)" offset="0%"/><stop stop-color="rgba(255, 179, 11, 1)" offset="100%"/></linearGradient></defs><path style="transform:translate(0, 0px); opacity:1" fill="url(#sw-gradient-0)" d="M0,58L40,58C80,58,160,58,240,87C320,116,400,174,480,193.3C560,213,640,193,720,174C800,155,880,135,960,111.2C1040,87,1120,58,1200,43.5C1280,29,1360,29,1440,67.7C1520,106,1600,184,1680,203C1760,222,1840,184,1920,164.3C2000,145,2080,145,2160,140.2C2240,135,2320,126,2400,145C2480,164,2560,213,2640,198.2C2720,184,2800,106,2880,87C2960,68,3040,106,3120,106.3C3200,106,3280,68,3360,77.3C3440,87,3520,145,3600,149.8C3680,155,3760,106,3840,77.3C3920,48,4000,39,4080,38.7C4160,39,4240,48,4320,48.3C4400,48,4480,39,4560,62.8C4640,87,4720,145,4800,140.2C4880,135,4960,68,5040,77.3C5120,87,5200,174,5280,207.8C5360,242,5440,222,5520,217.5C5600,213,5680,222,5720,227.2L5760,232L5760,290L5720,290C5680,290,5600,290,5520,290C5440,290,5360,290,5280,290C5200,290,5120,290,5040,290C4960,290,4880,290,4800,290C4720,290,4640,290,4560,290C4480,290,4400,290,4320,290C4240,290,4160,290,4080,290C4000,290,3920,290,3840,290C3760,290,3680,290,3600,290C3520,290,3440,290,3360,290C3280,290,3200,290,3120,290C3040,290,2960,290,2880,290C2800,290,2720,290,2640,290C2560,290,2480,290,2400,290C2320,290,2240,290,2160,290C2080,290,2000,290,1920,290C1840,290,1760,290,1680,290C1600,290,1520,290,1440,290C1360,290,1280,290,1200,290C1120,290,1040,290,960,290C880,290,800,290,720,290C640,290,560,290,480,290C400,290,320,290,240,290C160,290,80,290,40,290L0,290Z"/></svg>